<?xml version="1.0" encoding="utf-8"?>
<!-- Generator: Adobe Illustrator 26.0.2, SVG Export Plug-In . SVG Version: 6.00 Build 0)  -->
<svg version="1.1" id="Capa_1" xmlns="http://www.w3.org/2000/svg" xmlns:xlink="http://www.w3.org/1999/xlink" x="0px" y="0px"
	 viewBox="0 0 332 320" style="enable-background:new 0 0 332 320;" xml:space="preserve">
<style type="text/css">
	.st0{fill:#FFFFFF;stroke:#FFFFFF;stroke-miterlimit:10;}
	.st1{fill:none;stroke:#30241C;stroke-width:4;stroke-linecap:round;stroke-linejoin:round;stroke-miterlimit:10;}
	
		.st2{fill:none;stroke:#30241C;stroke-width:4;stroke-linecap:round;stroke-linejoin:round;stroke-miterlimit:10;stroke-dasharray:0.501,20;}
</style>
<g>
	<g>
		<g>
			
				<ellipse transform="matrix(0.9999 -0.0119 0.0119 0.9999 -1.9614 1.9496)" class="st0" cx="162.81" cy="165.76" rx="132.85" ry="132.85"/>
		</g>
	</g>
	<ellipse transform="matrix(0.027 -0.9996 0.9996 0.027 -203.3233 321.2279)" cx="63.35" cy="265.06" rx="25.35" ry="25.35"/>
	<ellipse transform="matrix(0.027 -0.9996 0.9996 0.027 202.587 326.2221)" cx="268.87" cy="59.05" rx="25.35" ry="25.35"/>
	<g>
		<path class="st1" d="M84.23,284.68c56.16,37.6,132.85,31.6,182.45-18c49.6-49.6,55.6-126.29,18-182.45"/>
		<path class="st2" d="M243.66,43.58C187.6,6.8,111.6,13.05,62.32,62.32C13.05,111.6,6.8,187.61,43.58,243.66"/>
		<polyline class="st1" points="86.96,296.22 84.02,284.89 95.35,281.95 		"/>
		<polyline class="st1" points="241.35,32.62 244.83,43.79 233.65,47.28 		"/>
	</g>
	<g>
		<g>
			<path d="M120.88,116.45h9.94v6.44H131c1.47-2.76,3.53-4.74,6.16-5.93c2.64-1.2,5.49-1.79,8.56-1.79c3.74,0,7,0.66,9.8,1.98
				c2.79,1.32,5.11,3.13,6.94,5.43c1.84,2.3,3.22,4.98,4.14,8.05c0.92,3.07,1.38,6.35,1.38,9.84c0,3.19-0.41,6.29-1.24,9.29
				c-0.83,3-2.09,5.66-3.77,7.96c-1.69,2.3-3.82,4.14-6.39,5.52c-2.58,1.38-5.61,2.07-9.11,2.07c-1.53,0-3.07-0.14-4.6-0.41
				c-1.53-0.27-3-0.72-4.42-1.33c-1.41-0.61-2.71-1.39-3.91-2.35c-1.2-0.95-2.19-2.07-2.99-3.36h-0.18v23.73h-10.49V116.45z
				 M157.49,140.27c0-2.15-0.27-4.23-0.83-6.26c-0.55-2.02-1.38-3.82-2.49-5.38c-1.1-1.56-2.48-2.82-4.14-3.77
				c-1.65-0.95-3.56-1.42-5.7-1.42c-4.42,0-7.74,1.53-9.98,4.6c-2.24,3.07-3.36,7.14-3.36,12.23c0,2.39,0.29,4.62,0.88,6.67
				c0.58,2.05,1.45,3.82,2.62,5.29c1.17,1.47,2.56,2.64,4.19,3.5c1.62,0.86,3.51,1.29,5.66,1.29c2.39,0,4.41-0.49,6.07-1.47
				c1.65-0.98,3.02-2.26,4.09-3.82c1.07-1.56,1.84-3.34,2.3-5.33C157.26,144.4,157.49,142.36,157.49,140.27z"/>
			<path d="M166.63,108.65h7.91V94.39h10.49v14.26h9.47v7.82h-9.47v25.39c0,1.11,0.04,2.06,0.14,2.85c0.09,0.8,0.31,1.47,0.64,2.02
				s0.84,0.97,1.52,1.24c0.67,0.27,1.59,0.41,2.76,0.41c0.74,0,1.47-0.01,2.21-0.05c0.74-0.03,1.47-0.14,2.21-0.32v8.09
				c-1.17,0.12-2.3,0.24-3.4,0.37c-1.11,0.12-2.24,0.18-3.4,0.18c-2.76,0-4.98-0.26-6.67-0.78c-1.69-0.52-3-1.29-3.95-2.3
				c-0.95-1.01-1.59-2.28-1.93-3.82c-0.34-1.53-0.54-3.28-0.6-5.25v-28.05h-7.91V108.65z"/>
			<path d="M104.89,187.43c-0.49-1.9-1.17-3.65-2.02-5.24s-1.96-2.97-3.31-4.14c-1.35-1.16-2.93-2.07-4.74-2.71
				c-1.81-0.64-3.91-0.97-6.3-0.97c-3.5,0-6.52,0.7-9.06,2.11c-2.55,1.41-4.61,3.3-6.21,5.66s-2.77,5.04-3.54,8.05
				c-0.77,3.01-1.15,6.07-1.15,9.2c0,3.13,0.38,6.19,1.15,9.2c0.77,3,1.95,5.69,3.54,8.05c1.59,2.36,3.66,4.25,6.21,5.66
				s5.56,2.12,9.06,2.12c2.58,0,4.84-0.44,6.81-1.33c1.96-0.89,3.65-2.12,5.06-3.68c1.41-1.56,2.51-3.39,3.31-5.47
				c0.8-2.08,1.32-4.32,1.56-6.71h11.22c-0.25,3.93-1.09,7.51-2.53,10.76c-1.44,3.25-3.39,6.06-5.84,8.42
				c-2.45,2.36-5.33,4.18-8.65,5.47c-3.31,1.29-6.96,1.93-10.95,1.93c-4.91,0-9.3-0.91-13.2-2.71c-3.9-1.81-7.19-4.28-9.89-7.4
				c-2.7-3.13-4.77-6.78-6.21-10.95c-1.44-4.17-2.16-8.62-2.16-13.34c0-4.66,0.72-9.08,2.16-13.25c1.44-4.17,3.51-7.82,6.21-10.95
				c2.7-3.13,5.99-5.61,9.89-7.45c3.9-1.84,8.29-2.76,13.2-2.76c3.68,0,7.14,0.51,10.4,1.52c3.25,1.01,6.12,2.48,8.6,4.41
				c2.48,1.93,4.49,4.28,6.02,7.04c1.53,2.76,2.49,5.92,2.85,9.47H104.89z"/>
			<path d="M120.88,187.25h10.6v9.91h0.2c0.33-1.39,0.97-2.74,1.93-4.06c0.96-1.32,2.11-2.53,3.47-3.62
				c1.35-1.09,2.86-1.96,4.51-2.63c1.65-0.66,3.34-0.99,5.05-0.99c1.32,0,2.23,0.03,2.73,0.1c0.5,0.07,1.01,0.13,1.54,0.2v10.9
				c-0.79-0.13-1.6-0.25-2.43-0.35c-0.83-0.1-1.63-0.15-2.43-0.15c-1.92,0-3.71,0.38-5.4,1.14c-1.68,0.76-3.16,1.88-4.41,3.37
				c-1.26,1.49-2.25,3.32-2.97,5.5c-0.73,2.18-1.09,4.69-1.09,7.53v24.38h-11.29V187.25z"/>
			<path d="M165.65,192.76c0,1.84,0.26,3.62,0.78,5.33c0.52,1.72,1.3,3.22,2.35,4.51c1.04,1.29,2.36,2.32,3.95,3.08
				c1.59,0.77,3.5,1.15,5.7,1.15c3.06,0,5.53-0.66,7.4-1.98c1.87-1.32,3.27-3.3,4.19-5.93h9.93c-0.55,2.58-1.5,4.88-2.85,6.9
				s-2.97,3.73-4.88,5.11c-1.9,1.38-4.03,2.42-6.39,3.13c-2.36,0.7-4.83,1.06-7.4,1.06c-3.74,0-7.05-0.61-9.93-1.84
				c-2.88-1.23-5.32-2.94-7.31-5.15c-1.99-2.21-3.5-4.84-4.51-7.91c-1.01-3.06-1.52-6.44-1.52-10.12c0-3.37,0.54-6.58,1.61-9.61
				c1.07-3.04,2.61-5.7,4.6-8c1.99-2.3,4.4-4.12,7.22-5.47c2.82-1.35,6.01-2.02,9.57-2.02c3.74,0,7.1,0.78,10.07,2.35
				c2.97,1.56,5.44,3.63,7.4,6.21c1.96,2.58,3.39,5.53,4.28,8.88c0.89,3.34,1.12,6.79,0.69,10.35H165.65z M190.12,185.87
				c-0.12-1.65-0.48-3.25-1.06-4.78c-0.58-1.53-1.38-2.86-2.39-4c-1.01-1.14-2.24-2.05-3.68-2.76c-1.44-0.7-3.05-1.06-4.83-1.06
				c-1.84,0-3.51,0.32-5.01,0.97c-1.5,0.64-2.79,1.53-3.86,2.67c-1.07,1.14-1.93,2.47-2.58,4c-0.64,1.53-1,3.19-1.06,4.97H190.12z"
				/>
			<path d="M203.6,185.87h11.13l9.29,35.51h0.18l8.92-35.51h10.58l8.55,35.51h0.18l9.66-35.51h10.67l-14.9,47.56h-10.76l-8.83-35.32
				h-0.18l-8.74,35.32h-11.04L203.6,185.87z"/>
			<g>
				<path d="M86.77,94.03c4.91,0,9.3,0.92,13.2,2.76c3.9,1.84,7.19,4.32,9.89,7.45c2.7,3.13,4.77,6.78,6.21,10.95
					c1.44,4.17,2.16,8.59,2.16,13.25c0,4.72-0.72,9.17-2.16,13.34c-1.44,4.17-3.51,7.82-6.21,10.95c-2.7,3.13-5.99,5.6-9.89,7.4
					c-3.9,1.81-8.29,2.71-13.2,2.71c-4.91,0-9.3-0.91-13.2-2.71c-3.9-1.81-7.19-4.28-9.89-7.4c-2.7-3.13-4.77-6.78-6.21-10.95
					c-1.44-4.17-2.16-8.62-2.16-13.34c0-4.66,0.72-9.08,2.16-13.25c1.44-4.17,3.51-7.82,6.21-10.95c2.7-3.13,5.99-5.61,9.89-7.45
					C77.46,94.95,81.86,94.03,86.77,94.03z M86.77,103.41c-3.5,0-6.52,0.7-9.06,2.11c-2.55,1.41-4.61,3.3-6.21,5.66
					c-1.59,2.36-2.77,5.04-3.54,8.05c-0.77,3.01-1.15,6.07-1.15,9.2c0,3.13,0.38,6.19,1.15,9.2c0.77,3,1.95,5.69,3.54,8.05
					c1.59,2.36,3.66,4.25,6.21,5.66s5.56,2.12,9.06,2.12c3.5,0,6.52-0.71,9.06-2.12s4.61-3.3,6.21-5.66
					c1.59-2.36,2.77-5.05,3.54-8.05c0.77-3,1.15-6.07,1.15-9.2c0-3.13-0.38-6.19-1.15-9.2c-0.77-3-1.95-5.69-3.54-8.05
					c-1.6-2.36-3.67-4.25-6.21-5.66C93.28,104.11,90.26,103.41,86.77,103.41z"/>
			</g>
		</g>
		<g>
			<g>
				<path d="M203.82,125.2v-8.7h10.56v8.7H203.82z M214.39,131.15v38.46h-10.56v-38.46H214.39z"/>
			</g>
		</g>
	</g>
</g>
<g>
</g>
<g>
</g>
<g>
</g>
<g>
</g>
<g>
</g>
<g>
</g>
<g>
</g>
<g>
</g>
<g>
</g>
<g>
</g>
<g>
</g>
<g>
</g>
<g>
</g>
<g>
</g>
<g>
</g>
</svg>
